<svg xmlns="http://www.w3.org/2000/svg" version="1.1" xlink="http://www.w3.org/1999/xlink" xmlns:svgjs="http://svgjs.com/svgjs" width="100%" height="100%" viewBox="8.092292785644531 1.7307443618774414 83.84870147705078 96.52825164794922"><g fill="#137c47"><path d="M80.398 69.922c.09 6.281-.75 12.23-2.73 18.039-1.012-2.621-1.922-5.2-3.012-7.71-1.102-2.54-2.5-4.923-4.48-7.122C68.752 81 65.373 87.891 60.873 94.52c-.359-3.262-.601-6.32-1.05-9.36-.45-3.058-1.102-6.077-1.79-9.12-3.609 8.988-9.878 15.809-17.19 22.219 1.53-7.301 2.738-14.371 2.96-21.828-4.808 6.82-11.18 11.629-17.87 16.48 2.75-6.86 5.5-13.48 6.808-20.738-5.5 5.07-12.03 8.019-19.012 10.87.422-2.55.692-4.89 1.211-7.171 1.32-5.73 4.422-10.48 8.371-14.73 1.211-1.309 2.39-2.649 3.691-3.88 4.7-4.429 7.38-9.929 8.93-16.128.5-2 .238-3.602-.828-5.281-2.102-3.29-4.852-5.852-8.281-7.7-.399-.218-.809-.43-1.23-.648.18-.719.64-.852 1.3-.84 3.91.031 7.809.02 11.72.02.218 0 .429.011.648-.012 1.058-.121 2-.45 2.41-1.551.398-1.09.02-2.04-.79-2.738-.859-.739-1.85-1.309-2.78-1.97-1.84-1.3-3.422-2.839-4.079-5.07-.25-.84-.308-1.73-.48-2.738-1.059 0-2.21-.03-3.371.012-2.629.102-3.43-.55-4.629-3.36 2.941-2.421 6.27-4.171 9.86-5.41C44.842.58 54.132 1.22 63.3 4.908c6.282 2.53 11.871 6.171 16.891 10.698.102.09.18.219.38.469h-5.88c6.121 4.449 10.891 9.8 14.95 15.87-3.641-1.78-7.29-3.48-11.43-4.55 6.109 6.809 10.09 14.66 13.73 23.02-3.88-2.531-7.532-4.898-11.18-7.27 6.37 12.32 9.308 25.38 8.89 39.25-2.414-4.574-5.14-8.882-9.254-12.472zm-40.27-57.25c-2.031-.238-2.129-.2-2.559.96-.66 1.79-.07 3.821 1.45 4.95 1.699 1.262 3.93 1.25 5.558-.039 1.551-1.219 2.09-3.238 1.36-5.05-.25-.641-.59-1.02-1.36-.923-.61.079-1.23.032-1.84.02-1.109-.012-1.62.648-1.25 1.71.301.872.91 1.45 1.84 1.63.25.05.5.078.809.12-.52 1.13-1.32 1.72-2.469 1.75-1.18.032-2.27-.71-2.66-1.78-.488-1.34.07-2.38 1.12-3.348z"></path><path d="M12.031 36.75c-5.988-5.879-5.45-17.762 3.7-23.738.44.422.921.84 1.37 1.29 2.602 2.57 5.23 5.12 7.79 7.737.671.692 1.34.891 2.269.762 3.852-.558 7.66-.34 11.41.73.578.16 1.648.09 1.379 1.06-.29 1.058-1.2.37-1.781.21-4.02-1.121-8.078-1.07-12.16-.48-.211.03-.45.199-.57.379-1.65 2.39-4.102 3.238-6.821 3.449-1.34.101-2.7-.031-4.05.011-.36.012-.829.211-1.032.489-1.52 2.078-1.68 4.488-1.59 6.949.004.344.055.703.086 1.152z"></path><path d="M24.93 19.512a6005.54 6005.54 0 0 0-7.3-7.7c1.25-.8 2.878-1.23 4.558-1.51.36-.06.73-.11 1.101-.13.2-.012.532-.012.59.102.45.75 1.149 1.52 1.211 2.32.16 2.25.059 4.52.059 6.781-.07.047-.149.086-.219.137z"></path></g></svg>